# xmcd CD database file
#
# Track frame offsets:
#	150
#	62231
#	118335
#	214786
#
# Disc length: 3351 seconds
#
# Revision: 0
# Processed by: cddbd v1.5.2PL0 Copyright (c) Steve Scherf et al.
# Submitted via: CDex 1.51
#
DISCID=3c0d1504
DTITLE=Eric Dolphy - Live at the Five Spot [CD1]
DYEAR=1961
DGENRE=Jazz
TTITLE0=Fire Waltz
TTITLE1=Bee Vamp
TTITLE2=The Prophet
TTITLE3=Bee Vamp (Alt Take)
EXTD=YEAR: 1961
EXTT0=
EXTT1=
EXTT2=
EXTT3=
PLAYORDER=
